<?xml version="1.0" encoding="UTF-8" standalone="no"?><!DOCTYPE svg PUBLIC "-//W3C//DTD SVG 1.1//EN" "http://www.w3.org/Graphics/SVG/1.1/DTD/svg11.dtd"><svg width="114" height="42" viewBox="0 0 114 42" version="1.1" xmlns="http://www.w3.org/2000/svg" xmlns:xlink="http://www.w3.org/1999/xlink" xml:space="preserve" xmlns:serif="http://www.serif.com/" style="fill-rule:evenodd;clip-rule:evenodd;stroke-linejoin:round;stroke-miterlimit:2;"><rect id="Artboard1" x="0" y="0" width="114" height="41.25" style="fill:none;"/><clipPath id="_clip1"><rect id="Artboard11" serif:id="Artboard1" x="0" y="0" width="114" height="41.25"/></clipPath><g clip-path="url(#_clip1)"><g><path d="M82.234,10.541c-0.596,0 -1.107,-0.112 -1.528,-0.335c-0.422,-0.225 -0.744,-0.553 -0.965,-0.985c-0.222,-0.433 -0.333,-0.954 -0.333,-1.567l0,-0.727c0,-0.638 0.106,-1.183 0.32,-1.634c0.212,-0.452 0.522,-0.795 0.929,-1.03c0.405,-0.236 0.894,-0.354 1.464,-0.354c0.539,-0 0.999,0.135 1.38,0.402c0.38,0.27 0.67,0.66 0.871,1.168c0.202,0.509 0.302,1.122 0.302,1.834l-0,0.422l-4.017,-0l-0,-0.002l-0.044,-0c0.009,0.507 0.151,0.9 0.421,1.174c0.282,0.286 0.683,0.43 1.2,0.43c0.256,0 0.511,-0.053 0.763,-0.157c0.252,-0.102 0.479,-0.248 0.678,-0.434l0.831,0.833c-0.318,0.305 -0.676,0.542 -1.075,0.71c-0.396,0.167 -0.797,0.252 -1.197,0.252Zm-1.619,-3.826l2.855,0c-0.039,-0.526 -0.174,-0.935 -0.407,-1.225c-0.234,-0.293 -0.547,-0.439 -0.942,-0.439c-0.478,0 -0.852,0.157 -1.114,0.473c-0.241,0.287 -0.372,0.684 -0.392,1.191Z" style="fill:#4f758b;fill-rule:nonzero;"/><rect x="63.484" y="34.54" width="1.265" height="6.446" style="fill:#4f758b;"/><rect x="63.484" y="31.957" width="1.265" height="1.268" style="fill:#4f758b;"/><path d="M58.838,34.54l0.666,0l-0,-1.876l1.267,0l0,1.876l0.973,0l0,1.143l-0.973,-0l0,3.639c0,0.157 0.03,0.278 0.091,0.363c0.064,0.085 0.155,0.127 0.274,0.127l0.608,0l0,1.206l-0.731,-0c-0.522,-0 -0.903,-0.144 -1.147,-0.432c-0.242,-0.288 -0.362,-0.713 -0.362,-1.276l-0,-3.627l-0.666,-0l0,-1.143Z" style="fill:#4f758b;fill-rule:nonzero;"/><path d="M53.02,31.41l0.707,-0.651l1.243,1.178l1.242,-1.178l0.708,0.651l-1.95,1.888l-1.95,-1.888Z" style="fill:#4f758b;fill-rule:nonzero;"/><path d="M55.156,41.08c-0.595,-0 -1.106,-0.113 -1.528,-0.335c-0.422,-0.225 -0.744,-0.554 -0.964,-0.986c-0.223,-0.432 -0.333,-0.954 -0.333,-1.566l-0,-0.727c-0,-0.639 0.106,-1.183 0.32,-1.635c0.212,-0.451 0.521,-0.795 0.928,-1.03c0.405,-0.235 0.895,-0.354 1.465,-0.354c0.538,0 0.998,0.136 1.38,0.403c0.379,0.269 0.67,0.659 0.871,1.168c0.201,0.508 0.301,1.121 0.301,1.833l0,0.422l-4.017,0l-0,-0.002l-0.044,0c0.01,0.507 0.152,0.9 0.422,1.174c0.281,0.286 0.682,0.431 1.199,0.431c0.257,-0 0.511,-0.053 0.763,-0.157c0.253,-0.102 0.479,-0.248 0.679,-0.435l0.831,0.833c-0.318,0.305 -0.677,0.543 -1.075,0.71c-0.396,0.168 -0.797,0.253 -1.198,0.253Zm-1.618,-3.826l2.854,-0c-0.038,-0.526 -0.174,-0.935 -0.407,-1.226c-0.233,-0.292 -0.547,-0.438 -0.941,-0.438c-0.479,-0 -0.852,0.157 -1.115,0.472c-0.24,0.287 -0.371,0.684 -0.391,1.192Z" style="fill:#4f758b;fill-rule:nonzero;"/><path d="M47.706,41.099c-0.473,-0 -0.876,-0.104 -1.209,-0.308c-0.332,-0.205 -0.587,-0.504 -0.761,-0.898c-0.173,-0.393 -0.26,-0.865 -0.26,-1.416l-0,-1.421c-0,-0.555 0.084,-1.03 0.254,-1.422c0.17,-0.394 0.418,-0.693 0.742,-0.899c0.324,-0.203 0.714,-0.307 1.17,-0.307c0.382,-0 0.731,0.1 1.047,0.299c0.249,0.157 0.462,0.363 0.636,0.62l-0,-3.39l1.268,-0l-0,9.029l-1.268,0l-0,-0.826c-0.128,0.239 -0.309,0.443 -0.543,0.614c-0.292,0.217 -0.65,0.325 -1.076,0.325Zm1.619,-2.472l-0,-1.759c-0.001,-0.266 -0.05,-0.497 -0.148,-0.689c-0.1,-0.193 -0.244,-0.341 -0.433,-0.443c-0.186,-0.102 -0.415,-0.153 -0.684,-0.153c-0.42,0 -0.742,0.132 -0.973,0.392c-0.229,0.261 -0.344,0.628 -0.344,1.098l0,1.404c0,0.468 0.115,0.828 0.344,1.085c0.231,0.254 0.553,0.381 0.973,0.381c0.269,0 0.498,-0.052 0.684,-0.159c0.189,-0.106 0.333,-0.258 0.433,-0.455c0.098,-0.197 0.147,-0.43 0.148,-0.702Z" style="fill:#4f758b;fill-rule:nonzero;"/><path d="M37.54,41.08c-0.795,-0 -1.388,-0.166 -1.781,-0.494c-0.394,-0.329 -0.591,-0.829 -0.591,-1.501c-0,-0.636 0.18,-1.115 0.54,-1.433c0.361,-0.32 0.905,-0.479 1.635,-0.479l1.776,0l-0,-0.274c-0,-0.421 -0.115,-0.75 -0.339,-0.983c-0.227,-0.233 -0.545,-0.352 -0.96,-0.352c-0.257,0 -0.507,0.04 -0.755,0.119c-0.246,0.078 -0.464,0.189 -0.655,0.328l-0.924,-0.633c0.244,-0.293 0.566,-0.522 0.964,-0.685c0.401,-0.163 0.844,-0.246 1.334,-0.246c0.534,0 0.989,0.093 1.371,0.282c0.381,0.189 0.672,0.462 0.869,0.82c0.199,0.359 0.299,0.791 0.299,1.296l-0,4.141l-1.204,0l-0,-0.496c-0.084,0.097 -0.179,0.182 -0.284,0.255c-0.163,0.11 -0.352,0.195 -0.568,0.25c-0.214,0.057 -0.458,0.085 -0.727,0.085Zm1.579,-2.887l-1.77,-0c-0.333,-0 -0.579,0.072 -0.742,0.22c-0.165,0.146 -0.246,0.371 -0.246,0.672c0,0.328 0.108,0.57 0.327,0.727c0.216,0.157 0.546,0.237 0.99,0.237c0.483,0 0.845,-0.053 1.083,-0.156c0.237,-0.102 0.358,-0.266 0.358,-0.484l-0,-1.216Z" style="fill:#4f758b;fill-rule:nonzero;"/><path d="M97.39,17.394l1.777,-2.204l0.911,0.759l-1.893,2.086l-0.795,-0.641Z" style="fill:#4f758b;fill-rule:nonzero;"/><path d="M93.21,24.059c0,0.156 0.036,0.277 0.104,0.362c0.068,0.085 0.164,0.127 0.289,0.127l0.595,0l0,1.206l-0.744,0c-0.481,0 -0.852,-0.15 -1.115,-0.447c-0.263,-0.299 -0.394,-0.718 -0.394,-1.261l-0,-7.353l1.265,-0l0,7.366Z" style="fill:#4f758b;fill-rule:nonzero;"/><path d="M85.628,16.146l0.708,-0.651l1.242,1.179l1.243,-1.179l0.708,0.651l-1.951,1.889l-1.95,-1.889Z" style="fill:#4f758b;fill-rule:nonzero;"/><path d="M81.094,25.816c-0.4,-0 -0.75,-0.096 -1.049,-0.289c-0.243,-0.157 -0.433,-0.367 -0.572,-0.63l-0,3.445l-1.266,0l0,-9.065l1.266,-0l-0,0.863c0.174,-0.27 0.385,-0.486 0.634,-0.649c0.315,-0.206 0.665,-0.308 1.049,-0.308c0.456,0 0.846,0.102 1.172,0.308c0.324,0.205 0.572,0.504 0.742,0.896c0.17,0.395 0.254,0.87 0.254,1.423l0,1.403c0,0.547 -0.087,1.015 -0.26,1.405c-0.174,0.388 -0.428,0.685 -0.766,0.89c-0.334,0.206 -0.735,0.308 -1.204,0.308Zm-1.621,-2.453c-0,0.278 0.051,0.513 0.15,0.708c0.1,0.193 0.242,0.344 0.431,0.448c0.188,0.101 0.417,0.154 0.686,0.154c0.418,0 0.742,-0.127 0.973,-0.381c0.229,-0.254 0.344,-0.615 0.344,-1.079l-0,-1.397c-0,-0.471 -0.115,-0.837 -0.344,-1.098c-0.231,-0.261 -0.555,-0.392 -0.973,-0.392c-0.269,-0 -0.498,0.051 -0.686,0.148c-0.189,0.1 -0.331,0.246 -0.431,0.439c-0.099,0.193 -0.15,0.424 -0.15,0.693l-0,1.757Z" style="fill:#4f758b;fill-rule:nonzero;"/><path d="M73.892,25.816c-0.382,-0 -0.738,-0.038 -1.071,-0.113c-0.334,-0.074 -0.646,-0.186 -0.934,-0.334c-0.291,-0.149 -0.558,-0.335 -0.802,-0.56l0.751,-0.924c0.347,0.265 0.693,0.464 1.038,0.595c0.344,0.134 0.683,0.2 1.018,0.2c0.5,-0 0.877,-0.079 1.127,-0.233c0.251,-0.155 0.376,-0.388 0.376,-0.7c-0,-0.206 -0.068,-0.362 -0.206,-0.464c-0.136,-0.104 -0.305,-0.174 -0.509,-0.21c-0.203,-0.034 -0.487,-0.066 -0.856,-0.095c-0.034,-0 -0.068,-0 -0.106,-0.003c-0.038,-0.002 -0.072,-0.006 -0.106,-0.01c-0.017,-0 -0.032,-0 -0.049,-0.002c-0.017,-0.003 -0.034,-0.005 -0.05,-0.005c-0.418,-0.031 -0.772,-0.093 -1.063,-0.182c-0.288,-0.089 -0.53,-0.256 -0.722,-0.5c-0.193,-0.244 -0.289,-0.594 -0.289,-1.049c0,-0.456 0.094,-0.835 0.28,-1.136c0.185,-0.303 0.462,-0.53 0.831,-0.681c0.369,-0.15 0.831,-0.227 1.386,-0.227c0.335,0 0.655,0.032 0.958,0.094c0.306,0.061 0.596,0.154 0.874,0.275c0.277,0.123 0.545,0.278 0.801,0.464l-0.765,0.925c-0.322,-0.208 -0.64,-0.363 -0.952,-0.467c-0.314,-0.102 -0.619,-0.154 -0.916,-0.154c-0.432,-0 -0.754,0.074 -0.971,0.22c-0.213,0.146 -0.322,0.367 -0.322,0.661c0,0.174 0.062,0.305 0.185,0.392c0.121,0.087 0.275,0.145 0.462,0.174c0.186,0.028 0.451,0.053 0.795,0.075c0.025,0.004 0.051,0.006 0.076,0.006c0.028,-0 0.055,0.002 0.085,0.006l0.038,0c0.011,0 0.023,0.002 0.036,0.006c0.451,0.028 0.835,0.09 1.153,0.181c0.316,0.091 0.583,0.271 0.797,0.54c0.216,0.269 0.322,0.657 0.322,1.166c0,0.464 -0.097,0.848 -0.297,1.153c-0.199,0.303 -0.498,0.532 -0.898,0.687c-0.399,0.152 -0.901,0.229 -1.505,0.229" style="fill:#4f758b;fill-rule:nonzero;"/><path d="M67.227,24.612c0.443,-0 0.784,-0.14 1.028,-0.418c0.242,-0.277 0.363,-0.665 0.363,-1.168l-0,-1.066c-0,-0.502 -0.121,-0.888 -0.363,-1.162c-0.244,-0.273 -0.585,-0.411 -1.028,-0.411c-0.443,0 -0.786,0.138 -1.028,0.411c-0.242,0.274 -0.363,0.66 -0.363,1.162l0,1.066c0,0.503 0.121,0.891 0.363,1.168c0.242,0.278 0.585,0.418 1.028,0.418Zm-0,1.204c-0.56,-0 -1.037,-0.11 -1.435,-0.329c-0.397,-0.22 -0.702,-0.54 -0.909,-0.96c-0.21,-0.42 -0.314,-0.926 -0.314,-1.517l-0,-1.05c-0,-0.585 0.104,-1.085 0.314,-1.501c0.207,-0.415 0.512,-0.733 0.909,-0.949c0.398,-0.219 0.875,-0.327 1.435,-0.327c0.557,0 1.037,0.108 1.435,0.327c0.396,0.216 0.699,0.534 0.909,0.949c0.208,0.416 0.314,0.916 0.314,1.501l-0,1.066c-0,0.59 -0.106,1.092 -0.314,1.508c-0.21,0.415 -0.513,0.733 -0.909,0.953c-0.398,0.219 -0.878,0.329 -1.435,0.329" style="fill:#4f758b;fill-rule:nonzero;"/><path d="M60.091,25.835c-0.473,-0 -0.876,-0.104 -1.209,-0.308c-0.332,-0.205 -0.587,-0.504 -0.76,-0.898c-0.174,-0.392 -0.261,-0.865 -0.261,-1.416l-0,-1.42c-0,-0.556 0.085,-1.03 0.254,-1.423c0.17,-0.394 0.418,-0.693 0.742,-0.898c0.324,-0.204 0.715,-0.308 1.17,-0.308c0.382,0 0.732,0.1 1.047,0.299c0.25,0.157 0.462,0.364 0.636,0.621l0,-3.391l1.268,-0l-0,9.03l-1.268,-0l0,-0.827c-0.128,0.239 -0.309,0.444 -0.542,0.615c-0.293,0.216 -0.651,0.324 -1.077,0.324Zm1.619,-2.471l0,-1.76c-0.001,-0.266 -0.05,-0.497 -0.148,-0.689c-0.1,-0.193 -0.244,-0.341 -0.432,-0.443c-0.187,-0.102 -0.416,-0.152 -0.685,-0.152c-0.42,-0 -0.742,0.131 -0.973,0.392c-0.229,0.26 -0.344,0.627 -0.344,1.098l0,1.403c0,0.468 0.115,0.829 0.344,1.085c0.231,0.255 0.553,0.382 0.973,0.382c0.269,-0 0.498,-0.053 0.685,-0.159c0.188,-0.106 0.332,-0.259 0.432,-0.456c0.098,-0.196 0.147,-0.429 0.148,-0.701Z" style="fill:#4f758b;fill-rule:nonzero;"/><path d="M50.173,24.612c0.443,-0 0.784,-0.14 1.028,-0.418c0.242,-0.277 0.362,-0.665 0.362,-1.168l0,-1.066c0,-0.502 -0.12,-0.888 -0.362,-1.162c-0.244,-0.273 -0.585,-0.411 -1.028,-0.411c-0.443,0 -0.787,0.138 -1.028,0.411c-0.242,0.274 -0.363,0.66 -0.363,1.162l0,1.066c0,0.503 0.121,0.891 0.363,1.168c0.241,0.278 0.585,0.418 1.028,0.418Zm-0,1.204c-0.56,-0 -1.037,-0.11 -1.435,-0.329c-0.396,-0.22 -0.702,-0.54 -0.909,-0.96c-0.21,-0.42 -0.314,-0.926 -0.314,-1.517l-0,-1.05c-0,-0.585 0.104,-1.085 0.314,-1.501c0.207,-0.415 0.513,-0.733 0.909,-0.949c0.398,-0.219 0.875,-0.327 1.435,-0.327c0.557,0 1.036,0.108 1.435,0.327c0.396,0.216 0.699,0.534 0.909,0.949c0.208,0.416 0.314,0.916 0.314,1.501l0,1.066c0,0.59 -0.106,1.092 -0.314,1.508c-0.21,0.415 -0.513,0.733 -0.909,0.953c-0.399,0.219 -0.878,0.329 -1.435,0.329" style="fill:#4f758b;fill-rule:nonzero;"/><path d="M45.944,20.805c-0.112,-0.138 -0.254,-0.242 -0.424,-0.312c-0.169,-0.07 -0.364,-0.106 -0.589,-0.106c-0.401,0 -0.712,0.113 -0.935,0.333c-0.22,0.223 -0.333,0.53 -0.333,0.922l0,4.081l-1.265,-0l0,-6.446l1.265,-0l0,0.898c0.178,-0.278 0.391,-0.503 0.641,-0.672c0.315,-0.214 0.663,-0.32 1.042,-0.32c0.295,0 0.562,0.043 0.8,0.128c0.237,0.085 0.445,0.209 0.623,0.375l-0.825,1.119Z" style="fill:#4f758b;fill-rule:nonzero;"/><path d="M38.366,25.816c-0.4,-0 -0.75,-0.096 -1.049,-0.289c-0.243,-0.157 -0.433,-0.367 -0.572,-0.63l-0,3.445l-1.266,0l0,-9.065l1.266,-0l-0,0.863c0.174,-0.27 0.385,-0.486 0.634,-0.649c0.315,-0.206 0.665,-0.308 1.049,-0.308c0.456,0 0.846,0.102 1.172,0.308c0.324,0.205 0.572,0.504 0.742,0.896c0.17,0.395 0.254,0.87 0.254,1.423l0,1.403c0,0.547 -0.086,1.015 -0.26,1.405c-0.174,0.388 -0.429,0.685 -0.766,0.89c-0.334,0.206 -0.735,0.308 -1.204,0.308Zm-1.621,-2.453c-0,0.278 0.051,0.513 0.15,0.708c0.1,0.193 0.242,0.344 0.431,0.448c0.188,0.101 0.417,0.154 0.686,0.154c0.418,0 0.742,-0.127 0.973,-0.381c0.229,-0.254 0.344,-0.615 0.344,-1.079l-0,-1.397c-0,-0.471 -0.115,-0.837 -0.344,-1.098c-0.231,-0.261 -0.555,-0.392 -0.973,-0.392c-0.269,-0 -0.498,0.051 -0.686,0.148c-0.189,0.1 -0.331,0.246 -0.431,0.439c-0.099,0.193 -0.15,0.424 -0.15,0.693l-0,1.757Z" style="fill:#4f758b;fill-rule:nonzero;"/><rect x="105.54" y="4.013" width="1.266" height="6.446" style="fill:#4f758b;"/><rect x="105.54" y="1.429" width="1.266" height="1.267" style="fill:#4f758b;"/><path d="M101.508,10.552c-0.4,0 -0.75,-0.095 -1.049,-0.288c-0.243,-0.157 -0.434,-0.368 -0.573,-0.631l0,3.446l-1.265,-0l0,-9.066l1.265,-0l0,0.863c0.175,-0.27 0.386,-0.486 0.634,-0.649c0.316,-0.206 0.666,-0.307 1.05,-0.307c0.455,-0 0.845,0.101 1.172,0.307c0.324,0.205 0.572,0.505 0.742,0.897c0.169,0.394 0.254,0.869 0.254,1.422l-0,1.403c-0,0.547 -0.087,1.015 -0.261,1.406c-0.173,0.388 -0.428,0.684 -0.765,0.89c-0.335,0.205 -0.735,0.307 -1.204,0.307Zm-1.622,-2.452c0,0.277 0.051,0.513 0.151,0.708c0.1,0.193 0.242,0.343 0.43,0.447c0.189,0.102 0.418,0.155 0.687,0.155c0.418,-0 0.742,-0.128 0.973,-0.382c0.229,-0.254 0.344,-0.615 0.344,-1.079l-0,-1.397c-0,-0.47 -0.115,-0.837 -0.344,-1.098c-0.231,-0.26 -0.555,-0.392 -0.973,-0.392c-0.269,0 -0.498,0.051 -0.687,0.149c-0.188,0.099 -0.33,0.246 -0.43,0.438c-0.1,0.193 -0.151,0.424 -0.151,0.693l0,1.758Z" style="fill:#4f758b;fill-rule:nonzero;"/><path d="M93.913,10.552c-0.795,0 -1.388,-0.165 -1.78,-0.494c-0.394,-0.328 -0.591,-0.829 -0.591,-1.501c-0,-0.635 0.18,-1.115 0.54,-1.432c0.36,-0.321 0.905,-0.479 1.634,-0.479l1.777,-0l-0,-0.274c-0,-0.422 -0.115,-0.75 -0.339,-0.983c-0.227,-0.234 -0.545,-0.352 -0.961,-0.352c-0.256,-0 -0.506,0.04 -0.754,0.118c-0.246,0.079 -0.465,0.189 -0.655,0.329l-0.925,-0.634c0.244,-0.292 0.566,-0.521 0.965,-0.684c0.4,-0.163 0.844,-0.246 1.333,-0.246c0.534,-0 0.99,0.093 1.372,0.282c0.381,0.188 0.671,0.462 0.869,0.82c0.199,0.358 0.299,0.791 0.299,1.295l-0,4.142l-1.204,-0l-0,-0.497c-0.085,0.098 -0.179,0.183 -0.284,0.255c-0.164,0.11 -0.352,0.195 -0.569,0.25c-0.214,0.058 -0.457,0.085 -0.727,0.085Zm1.58,-2.887l-1.77,0c-0.333,0 -0.579,0.072 -0.742,0.221c-0.166,0.146 -0.246,0.371 -0.246,0.671c-0,0.329 0.108,0.571 0.326,0.727c0.217,0.157 0.547,0.238 0.99,0.238c0.483,-0 0.846,-0.053 1.083,-0.157c0.238,-0.102 0.359,-0.265 0.359,-0.483l-0,-1.217Z" style="fill:#4f758b;fill-rule:nonzero;"/><path d="M89.971,5.541c-0.112,-0.138 -0.255,-0.241 -0.424,-0.311c-0.17,-0.07 -0.365,-0.106 -0.589,-0.106c-0.401,-0 -0.713,0.112 -0.935,0.333c-0.22,0.222 -0.333,0.529 -0.333,0.921l0,4.081l-1.265,-0l-0,-6.446l1.265,-0l0,0.899c0.177,-0.278 0.391,-0.503 0.64,-0.672c0.316,-0.214 0.664,-0.32 1.043,-0.32c0.295,-0 0.562,0.042 0.799,0.127c0.238,0.085 0.445,0.21 0.623,0.375l-0.824,1.119Z" style="fill:#4f758b;fill-rule:nonzero;"/><path d="M74.96,4.013l0.665,-0l0,-1.876l1.268,0l-0,1.876l0.973,-0l-0,1.142l-0.973,0l-0,3.64c-0,0.157 0.029,0.278 0.091,0.363c0.063,0.084 0.155,0.126 0.273,0.126l0.609,0l-0,1.207l-0.732,-0c-0.521,-0 -0.903,-0.144 -1.147,-0.433c-0.241,-0.288 -0.362,-0.712 -0.362,-1.276l0,-3.627l-0.665,0l-0,-1.142Z" style="fill:#4f758b;fill-rule:nonzero;"/><path d="M71.218,9.348c0.443,0 0.785,-0.14 1.028,-0.418c0.242,-0.277 0.363,-0.665 0.363,-1.167l-0,-1.067c-0,-0.502 -0.121,-0.888 -0.363,-1.161c-0.243,-0.274 -0.585,-0.411 -1.028,-0.411c-0.443,-0 -0.786,0.137 -1.028,0.411c-0.242,0.273 -0.362,0.659 -0.362,1.161l-0,1.067c-0,0.502 0.12,0.89 0.362,1.167c0.242,0.278 0.585,0.418 1.028,0.418Zm0,1.204c-0.559,0 -1.036,-0.11 -1.435,-0.329c-0.396,-0.22 -0.701,-0.54 -0.909,-0.96c-0.21,-0.419 -0.314,-0.926 -0.314,-1.517l0,-1.05c0,-0.585 0.104,-1.085 0.314,-1.5c0.208,-0.416 0.513,-0.734 0.909,-0.95c0.399,-0.218 0.876,-0.326 1.435,-0.326c0.558,-0 1.037,0.108 1.435,0.326c0.397,0.216 0.7,0.534 0.91,0.95c0.207,0.415 0.313,0.915 0.313,1.5l0,1.067c0,0.589 -0.106,1.091 -0.313,1.507c-0.21,0.415 -0.513,0.733 -0.91,0.953c-0.398,0.219 -0.877,0.329 -1.435,0.329" style="fill:#4f758b;fill-rule:nonzero;"/><path d="M65.362,6.444l2.476,4.015l-1.38,-0l-1.887,-3.125l-1.137,1.281l-0,1.844l-1.266,-0l0,-9.03l1.266,0l-0,5.717l2.596,-3.133l1.49,-0l-2.158,2.431Z" style="fill:#4f758b;fill-rule:nonzero;"/><rect x="58.829" y="4.013" width="1.265" height="6.446" style="fill:#4f758b;"/><rect x="58.829" y="1.429" width="1.265" height="1.267" style="fill:#4f758b;"/><path d="M56.909,5.081l-3.099,4.203l3.269,0l-0,1.175l-4.801,-0l-0,-1.094l3.179,-4.178l-3.092,0l-0,-1.174l4.544,-0l0,1.068Z" style="fill:#4f758b;fill-rule:nonzero;"/><path d="M46.656,7.932c0,0.45 0.117,0.799 0.346,1.045c0.229,0.246 0.553,0.371 0.973,0.371c0.413,0 0.733,-0.11 0.962,-0.331c0.227,-0.218 0.342,-0.532 0.342,-0.936l-0,-4.068l1.258,-0l0,6.446l-1.258,-0l-0,-0.851c-0.134,0.24 -0.319,0.448 -0.56,0.622c-0.299,0.214 -0.664,0.322 -1.098,0.322c-0.712,0 -1.263,-0.229 -1.649,-0.687c-0.388,-0.458 -0.581,-1.102 -0.581,-1.933l-0,-3.919l1.265,-0l0,3.919Z" style="fill:#4f758b;fill-rule:nonzero;"/><path d="M42.093,1.429l1.185,0l-0,9.03l-1.236,-0l-0,-6.762l0.063,0.397l-2.223,5.11l-0.882,-0l-2.223,-4.985l0.061,-0.522l0,6.762l-1.236,-0l0,-9.03l1.187,0l2.652,5.963l2.652,-5.963Z" style="fill:#4f758b;fill-rule:nonzero;"/><path d="M87.765,25.816c-0.595,-0 -1.106,-0.113 -1.528,-0.335c-0.422,-0.225 -0.744,-0.553 -0.965,-0.986c-0.222,-0.432 -0.333,-0.954 -0.333,-1.566l0,-0.727c0,-0.638 0.106,-1.183 0.321,-1.635c0.212,-0.451 0.521,-0.794 0.928,-1.03c0.405,-0.235 0.895,-0.354 1.465,-0.354c0.538,0 0.998,0.136 1.38,0.403c0.379,0.269 0.669,0.659 0.871,1.168c0.201,0.509 0.301,1.121 0.301,1.834l-0,0.422l-4.017,-0l-0,-0.002l-0.044,-0c0.01,0.507 0.151,0.899 0.421,1.174c0.282,0.286 0.683,0.43 1.2,0.43c0.257,-0 0.511,-0.053 0.763,-0.157c0.252,-0.102 0.479,-0.248 0.678,-0.435l0.831,0.834c-0.318,0.305 -0.676,0.542 -1.074,0.709c-0.397,0.168 -0.797,0.253 -1.198,0.253Zm-1.619,-3.826l2.855,-0c-0.038,-0.526 -0.174,-0.935 -0.407,-1.225c-0.233,-0.293 -0.547,-0.439 -0.941,-0.439c-0.479,-0 -0.852,0.157 -1.115,0.472c-0.241,0.288 -0.371,0.685 -0.392,1.192Z" style="fill:#4f758b;fill-rule:nonzero;"/><path d="M111.371,10.541c-0.596,0 -1.107,-0.112 -1.528,-0.335c-0.422,-0.225 -0.744,-0.553 -0.965,-0.985c-0.222,-0.433 -0.333,-0.954 -0.333,-1.567l0,-0.727c0,-0.638 0.106,-1.183 0.321,-1.634c0.211,-0.452 0.521,-0.795 0.928,-1.03c0.405,-0.236 0.894,-0.354 1.465,-0.354c0.538,-0 0.998,0.135 1.379,0.402c0.38,0.27 0.67,0.66 0.872,1.168c0.201,0.509 0.301,1.122 0.301,1.834l-0,0.422l-4.017,-0l-0,-0.002l-0.044,-0c0.009,0.507 0.151,0.9 0.421,1.174c0.282,0.286 0.683,0.43 1.2,0.43c0.256,0 0.511,-0.053 0.763,-0.157c0.252,-0.102 0.479,-0.248 0.678,-0.434l0.831,0.833c-0.318,0.305 -0.676,0.542 -1.075,0.71c-0.396,0.167 -0.796,0.252 -1.197,0.252Zm-1.619,-3.826l2.855,0c-0.039,-0.526 -0.174,-0.935 -0.407,-1.225c-0.233,-0.293 -0.547,-0.439 -0.941,-0.439c-0.479,0 -0.852,0.157 -1.115,0.473c-0.241,0.287 -0.371,0.684 -0.392,1.191Z" style="fill:#4f758b;fill-rule:nonzero;"/><path d="M98.264,25.816c-0.595,-0 -1.106,-0.113 -1.528,-0.335c-0.422,-0.225 -0.744,-0.553 -0.965,-0.986c-0.222,-0.432 -0.332,-0.954 -0.332,-1.566l-0,-0.727c-0,-0.638 0.106,-1.183 0.32,-1.635c0.212,-0.451 0.521,-0.794 0.928,-1.03c0.405,-0.235 0.895,-0.354 1.465,-0.354c0.538,0 0.998,0.136 1.38,0.403c0.379,0.269 0.67,0.659 0.871,1.168c0.201,0.509 0.301,1.121 0.301,1.834l-0,0.422l-4.017,-0l-0,-0.002l-0.044,-0c0.01,0.507 0.151,0.899 0.421,1.174c0.282,0.286 0.683,0.43 1.2,0.43c0.257,-0 0.511,-0.053 0.763,-0.157c0.252,-0.102 0.479,-0.248 0.679,-0.435l0.83,0.834c-0.318,0.305 -0.676,0.542 -1.074,0.709c-0.397,0.168 -0.797,0.253 -1.198,0.253Zm-1.619,-3.826l2.855,-0c-0.038,-0.526 -0.174,-0.935 -0.407,-1.225c-0.233,-0.293 -0.547,-0.439 -0.941,-0.439c-0.479,-0 -0.852,0.157 -1.115,0.472c-0.241,0.288 -0.371,0.685 -0.392,1.192Z" style="fill:#4f758b;fill-rule:nonzero;"/><path d="M1.249,17.884c-0.947,1.107 -1.218,2.979 -0.406,4.511c0.49,0.923 1.153,1.49 1.938,1.771c0.605,0.216 1.49,0.403 2.313,0.042c0.273,-0.005 0.74,-0.27 1.171,-0.614l-0,7.564l1.009,0.486l-0,-9.318c0.62,-0.937 0.551,-2.764 -0.806,-3.772c-0.821,-0.61 -1.902,-0.797 -2.802,-0.251c-0.241,0.146 -0.668,0.469 -0.732,0.757c-0.499,0.609 -0.541,1.699 0.251,2.411c0.627,0.563 1.79,0.573 2.194,-0.375c-0.537,0.542 -1.252,0.856 -1.912,0.179c-0.642,-0.66 -0.44,-1.431 0.001,-1.945c0.701,-0.712 1.668,-0.616 2.264,-0.099c0.338,0.293 0.562,0.696 0.633,1.109c0.09,0.525 -0.091,0.676 -0.09,1.11c-0.214,0.194 -0.308,0.493 -0.637,0.77c-0.34,0.286 -0.572,0.333 -0.934,0.497c-0.957,0.01 -1.834,-0.011 -2.575,-1.124c-0.815,-1.223 -0.289,-2.086 -0.113,-2.805c0.951,-1.163 0.801,-1.145 2.291,-1.673c0.616,0.022 0.893,-0.034 1.444,0.117c0.43,0.118 0.882,0.32 1.315,0.679c0.744,0.448 1.26,1.556 1.403,2.318c0.22,1.173 -0.155,1.666 -0.195,2.199c0.302,-0.388 0.467,-1.217 0.509,-1.586c0.213,-1.891 -1.07,-3.82 -2.73,-4.34c-0.757,-0.285 -1.156,-0.287 -1.994,-0.247c-0.937,0.142 -2.315,0.739 -2.81,1.629" style="fill:#4f758b;"/><path d="M6.998,11.779c-0.801,1.624 -0.554,3.962 0.894,5.558c0.872,0.961 1.845,1.442 2.877,1.539c0.794,0.075 1.917,0.03 2.799,-0.658c0.185,-0.05 0.42,-0.221 0.663,-0.459l0,17.239l1.385,0.668l0,-20.156c0.012,-0.085 0.013,-0.161 0,-0.226c0.46,-1.319 -0.183,-3.499 -2.126,-4.297c-1.175,-0.483 -2.535,-0.377 -3.452,0.556c-0.245,0.249 -0.661,0.77 -0.65,1.136c-0.414,0.887 -0.131,2.213 1.042,2.827c0.927,0.486 2.331,0.142 2.527,-1.124c-0.481,0.818 -1.246,1.416 -2.248,0.802c-0.976,-0.598 -0.969,-1.589 -0.596,-2.343c0.627,-1.073 1.822,-1.253 2.698,-0.813c0.497,0.249 0.89,0.666 1.102,1.142c0.269,0.604 0.098,0.842 0.232,1.364c-0.198,0.3 -0.22,0.688 -0.532,1.123c-0.322,0.449 -0.587,0.576 -0.973,0.885c-1.149,0.306 -2.211,0.548 -3.445,-0.565c-1.357,-1.224 -0.988,-2.424 -0.995,-3.344c0.788,-1.693 0.613,-1.625 2.247,-2.718c0.748,-0.161 1.065,-0.314 1.774,-0.301c0.554,0.01 1.161,0.115 1.792,0.415c1.033,0.312 1.995,1.488 2.401,2.363c0.624,1.345 0.324,2.054 0.438,2.709c0.245,-0.561 0.19,-1.61 0.127,-2.067c-0.322,-2.343 -2.459,-4.274 -4.618,-4.392c-0.998,-0.112 -1.48,0.009 -2.476,0.314c-1.087,0.458 -2.563,1.6 -2.887,2.823" style="fill:#4f758b;"/><path d="M-0,15.054l-0,-15.054l14.665,-0l-14.665,15.054Z" style="fill:#4f758b;"/><path d="M-0,29.424l-0,1.833l20.84,9.984l-1.146,-0.001l-19.694,-9.314l-0,9.302l24.468,0.016l-24.468,-11.82Z" style="fill:#4f758b;"/><path d="M26.319,8.672l-0,0l-0,32.569l-1.851,0.003l-0,-29.548c-0.489,0.372 -1.021,0.63 -1.478,0.807c-1.16,0.451 -2.464,0.459 -3.918,-0.104c-2.416,-0.934 -3.94,-3.313 -3.954,-5.488c-0.311,-1.489 0.66,-3.51 1.58,-4.587c0.906,-0.864 1.358,-1.253 2.491,-1.672c2.382,-1.036 5.717,-0.112 7.326,2.231c0.314,0.457 0.938,1.554 0.976,2.288c-0.475,-0.642 -0.534,-1.565 -1.93,-2.673c-0.907,-0.721 -2.573,-1.467 -3.851,-1.246c-0.84,0.019 -1.548,0.233 -2.148,0.52c-0.769,0.368 -1.027,0.703 -1.744,1.28c-1.166,2.053 -1.014,1.886 -0.95,4.128c0.504,0.985 0.754,2.473 2.87,3.057c1.925,0.531 2.936,-0.302 4.005,-1.25c0.249,-0.538 0.464,-0.819 0.569,-1.474c0.101,-0.635 -0.085,-1.064 -0.034,-1.492c-0.425,-0.489 -0.369,-0.837 -0.984,-1.341c-0.484,-0.397 -1.13,-0.633 -1.798,-0.633c-1.179,0 -2.365,0.836 -2.46,2.326c0.005,1.012 0.532,2.08 1.901,2.196c1.407,0.12 1.907,-0.935 1.983,-2.072c0.471,1.466 -0.851,2.592 -2.109,2.569c-1.59,-0.029 -2.608,-1.3 -2.642,-2.476c-0.208,-0.387 -0.042,-1.17 0.086,-1.57c0.482,-1.496 1.887,-2.342 3.409,-2.457c2.517,-0.189 4.382,1.805 4.598,3.47c0.317,0.413 0.279,1.605 0.057,2.639" style="fill:#4f758b;"/><rect x="16.706" y="15.849" width="0.254" height="20.554" style="fill:#4f758b;"/><rect x="8.243" y="23.189" width="0.254" height="9.192" style="fill:#4f758b;"/><rect x="27.677" y="6.905" width="0.254" height="34.317" style="fill:#4f758b;"/></g></g></svg>