<?xml version="1.0" encoding="UTF-8" standalone="no"?><!DOCTYPE svg PUBLIC "-//W3C//DTD SVG 1.1//EN" "http://www.w3.org/Graphics/SVG/1.1/DTD/svg11.dtd"><svg width="100%" height="100%" viewBox="0 0 305 300" version="1.1" xmlns="http://www.w3.org/2000/svg" xmlns:xlink="http://www.w3.org/1999/xlink" xml:space="preserve" xmlns:serif="http://www.serif.com/" style="fill-rule:evenodd;clip-rule:evenodd;stroke-linejoin:round;stroke-miterlimit:2;"><path d="M13.104,92.409c-23.278,47.192 -16.099,115.173 26.003,161.586c25.35,27.948 53.634,41.911 83.626,44.738c23.09,2.177 55.763,0.871 81.39,-19.122c5.392,-1.473 12.205,-6.434 19.289,-13.34l19.196,-12.276l11.689,-23.128l6.25,-16.417c0.346,-2.454 3.491,-18.255 3.125,-20.16c13.383,-38.353 -5.319,-101.719 -61.816,-124.923c-34.167,-14.038 -73.711,-10.97 -100.371,16.169c-7.116,7.246 -19.197,22.394 -18.887,33.024c-12.029,25.791 -3.794,64.336 30.28,82.204c26.959,14.137 67.773,4.123 73.48,-32.683c-13.974,23.769 -36.226,41.153 -65.367,23.3c-28.354,-17.369 -28.155,-46.181 -17.299,-68.123c18.214,-31.181 52.946,-36.404 78.44,-23.619c14.438,7.242 25.855,19.352 32.018,33.189c7.833,17.573 2.861,24.505 6.743,39.671c-5.746,8.721 -6.385,20.005 -15.461,32.643c-9.36,13.043 -17.056,16.764 -28.279,25.725c-33.411,8.892 -64.3,15.941 -100.17,-16.417c-39.444,-35.58 -28.707,-70.463 -28.932,-97.238c22.928,-49.2 17.841,-47.233 65.325,-78.997c21.762,-4.696 30.972,-9.142 51.599,-8.758c16.097,0.302 33.728,3.34 52.098,12.057c30.03,9.065 57.978,43.27 69.789,68.703c18.156,39.106 9.423,59.716 12.749,78.754c7.13,-16.299 5.529,-46.801 3.698,-60.084c-9.383,-68.116 -71.504,-124.267 -134.262,-127.704c-29.032,-3.233 -43.044,0.27 -72.014,9.146c-31.58,13.314 -74.502,46.499 -83.929,82.08" style="fill:#4f758b;"/></svg>